<?xml version="1.0" encoding="utf-8"?>
<!-- Generator: Adobe Illustrator 15.1.0, SVG Export Plug-In . SVG Version: 6.00 Build 0)  -->
<!DOCTYPE svg PUBLIC "-//W3C//DTD SVG 1.1//EN" "http://www.w3.org/Graphics/SVG/1.1/DTD/svg11.dtd">
<svg version="1.1" xmlns="http://www.w3.org/2000/svg" xmlns:xlink="http://www.w3.org/1999/xlink" x="0px" y="0px" width="389px"
	 height="155px" viewBox="0 0 389 155" enable-background="new 0 0 389 155" xml:space="preserve">
<g id="Layer_2" display="none">
	
		<image display="inline" overflow="visible" width="738" height="514" xlink:href="C:\Users\IEUser\Desktop\logo.png"  transform="matrix(0.7501 0 0 0.7501 -196 -108)">
	</image>
</g>
<g id="Layer_1">
	<g>
		<path fill="#ED1C24" d="M384,149c-125.076-19.81-252-19.81-378,0C6,101.333,6,53.667,6,6c126,19.81,252.924,19.81,378,0
			C384,53.667,384,101.333,384,149z"/>
		<g>
			<g>
				<path fill="#FFFFFF" d="M171.74,75.473h24.01v32.432h-6.434l-1.975-6.951c-3.715,5.258-9.287,7.887-16.715,7.887
					c-7.869,0-14.107-2.725-18.717-8.176c-4.609-5.449-6.914-12.777-6.914-21.984c0-10.008,2.271-17.932,6.813-23.768
					c4.542-5.836,11.254-8.754,20.135-8.754c14.148,0,22.084,6.949,23.807,20.85l-13.676,1.961
					c-0.946-7.961-4.223-11.939-9.827-11.939c-3.411,0-6.138,1.469-8.181,4.41c-2.043,2.939-3.064,8.508-3.064,16.705
					c0,7.277,0.996,12.4,2.989,15.369c1.991,2.971,4.913,4.455,8.763,4.455c6.18,0,9.285-4.023,9.32-12.072H171.74V75.473z"/>
				<path fill="#FFFFFF" d="M207.603,47.094h15.196V96.5h22.287v11.404h-37.483V47.094z"/>
				<path fill="#FFFFFF" d="M251.771,47.094h15.195v60.811h-15.195V47.094z"/>
				<path fill="#FFFFFF" d="M280.035,47.094h22.287l9.775,37.555l10.991-37.555h21.629v60.811h-14.233v-50.92l-14.132,50.92h-11.042
					l-12.916-50.92v50.92h-12.359V47.094z"/>
			</g>
			<g>
				<path fill="#FFFFFF" d="M106.881,118.333c-1.566,0.001-3.244-0.465-4.988-1.382l-17.226-9.056l-17.226,9.056
					c-3.994,2.1-7.848,1.706-10.009-0.857c-1.059-1.255-2.179-3.577-1.505-7.508l3.289-19.18L45.281,75.822
					c-3.731-3.638-3.424-6.842-2.909-8.427c0.515-1.586,2.149-4.358,7.307-5.108l19.259-2.799l8.612-17.451
					c2.307-4.673,5.449-5.371,7.116-5.371s4.81,0.698,7.116,5.371l8.612,17.451l19.259,2.799c5.157,0.75,6.791,3.522,7.307,5.108
					c0.516,1.585,0.822,4.789-2.91,8.427l-13.935,13.584l3.29,19.18c0.674,3.931-0.447,6.252-1.506,7.508
					C110.684,117.538,108.9,118.333,106.881,118.333z M84.667,101.506c0.479,0,0.959,0.115,1.396,0.345l18.621,9.79
					c1.147,0.603,1.869,0.692,2.197,0.692c0.156,0,0.357-0.019,0.433-0.106c0.181-0.215,0.45-1.039,0.179-2.627l-3.557-20.733
					c-0.166-0.973,0.156-1.966,0.863-2.655l15.064-14.686c1.211-1.18,1.463-2.058,1.392-2.276s-0.79-0.781-2.464-1.024
					l-20.819-3.025c-0.978-0.142-1.821-0.756-2.259-1.641l-9.311-18.865c-0.748-1.517-1.505-2.027-1.735-2.027
					s-0.987,0.511-1.735,2.027l-9.311,18.865c-0.438,0.885-1.281,1.499-2.259,1.641l-20.819,3.025
					c-1.674,0.243-2.393,0.806-2.465,1.024c-0.07,0.219,0.182,1.097,1.392,2.276l15.065,14.686c0.707,0.689,1.029,1.683,0.863,2.655
					L61.842,109.6c-0.272,1.588-0.003,2.413,0.178,2.627c0.074,0.088,0.277,0.106,0.434,0.106c0.328,0,1.049-0.09,2.196-0.692
					l18.622-9.79C83.708,101.621,84.188,101.506,84.667,101.506z"/>
			</g>
		</g>
	</g>
</g>
</svg>
