<?xml version="1.0" encoding="utf-8"?>
<!-- Generator: Adobe Illustrator 15.1.0, SVG Export Plug-In . SVG Version: 6.00 Build 0)  -->
<!DOCTYPE svg PUBLIC "-//W3C//DTD SVG 1.1//EN" "http://www.w3.org/Graphics/SVG/1.1/DTD/svg11.dtd">
<svg version="1.1" id="Ñëîé_1" xmlns="http://www.w3.org/2000/svg" xmlns:xlink="http://www.w3.org/1999/xlink" x="0px" y="0px"
	 width="798.08px" height="561.056px" viewBox="984.582 701.123 798.08 561.056"
	 enable-background="new 984.582 701.123 798.08 561.056" xml:space="preserve">
<g>
	
		<linearGradient id="SVGID_1_" gradientUnits="userSpaceOnUse" x1="1865.25" y1="1090.1455" x2="1914.9932" y2="1090.1455" gradientTransform="matrix(0.8465 -0.5323 -0.5323 -0.8465 491.9227 3032.7932)">
		<stop  offset="0" style="stop-color:#E42320"/>
		<stop  offset="0.3687" style="stop-color:#B02320"/>
		<stop  offset="1" style="stop-color:#E8521D"/>
	</linearGradient>
	<path fill="url(#SVGID_1_)" d="M1580.34,1213.145L1580.34,1213.145c-12.05,7.578-27.989,3.516-34.941-8.906l-113.466-202.73
		l21.956-13.808l133.561,190.094C1595.633,1189.441,1592.39,1205.568,1580.34,1213.145z"/>
	<g enable-background="new    ">
		<g>
			
				<linearGradient id="SVGID_2_" gradientUnits="userSpaceOnUse" x1="1639.1836" y1="1035.9346" x2="1651.3105" y2="1035.9346" gradientTransform="matrix(1 0 0 -1 4 2016.668)">
				<stop  offset="0" style="stop-color:#B53418"/>
				<stop  offset="1" style="stop-color:#B21917"/>
			</linearGradient>
			<polygon fill="url(#SVGID_2_)" points="1654.349,1009.588 1643.184,993.868 1644.092,951.878 1655.311,966.422 			"/>
		</g>
		<g>
			
				<linearGradient id="SVGID_3_" gradientUnits="userSpaceOnUse" x1="1684.6797" y1="1095.9561" x2="1729.6211" y2="1095.9561" gradientTransform="matrix(1 0 0 -1 4 2016.668)">
				<stop  offset="0" style="stop-color:#E73F3E"/>
				<stop  offset="1" style="stop-color:#EB683B"/>
			</linearGradient>
			<polygon fill="url(#SVGID_3_)" points="1701.197,927.449 1688.68,913.988 1720.203,913.975 1733.621,927.424 			"/>
		</g>
		<g>
			
				<linearGradient id="SVGID_4_" gradientUnits="userSpaceOnUse" x1="1655.6475" y1="1095.9053" x2="1593.7272" y2="1095.9053" gradientTransform="matrix(1 0 0 -1 4 2016.668)">
				<stop  offset="0" style="stop-color:#B53418"/>
				<stop  offset="1" style="stop-color:#B21917"/>
			</linearGradient>
			<polygon fill="url(#SVGID_4_)" points="1603.88,927.524 1594.072,914.024 1646.301,914.004 1657.606,927.482 			"/>
		</g>
		<g>
			
				<linearGradient id="SVGID_5_" gradientUnits="userSpaceOnUse" x1="1643.1201" y1="1134.1934" x2="1698.1592" y2="1134.1934" gradientTransform="matrix(1 0 0 -1 4 2016.668)">
				<stop  offset="0" style="stop-color:#F08864"/>
				<stop  offset="1" style="stop-color:#EC6969"/>
			</linearGradient>
			<polygon fill="url(#SVGID_5_)" points="1658.475,888.673 1647.12,876.262 1689.588,876.29 1702.159,888.687 			"/>
		</g>
		<g>
			
				<linearGradient id="SVGID_6_" gradientUnits="userSpaceOnUse" x1="1648.3877" y1="1136.7295" x2="1648.3877" y2="1097.6003" gradientTransform="matrix(1 0 0 -1 4 2016.668)">
				<stop  offset="0" style="stop-color:#B53418"/>
				<stop  offset="1" style="stop-color:#B21917"/>
			</linearGradient>
			<polygon fill="url(#SVGID_6_)" points="1657.606,927.482 1646.301,914.004 1647.12,876.262 1658.475,888.673 			"/>
		</g>
		<g>
			
				<linearGradient id="SVGID_7_" gradientUnits="userSpaceOnUse" x1="1535.4229" y1="1073.0215" x2="1544.165" y2="1073.0215" gradientTransform="matrix(1 0 0 -1 4 2016.668)">
				<stop  offset="0" style="stop-color:#B53418"/>
				<stop  offset="1" style="stop-color:#B21917"/>
			</linearGradient>
			<polygon fill="url(#SVGID_7_)" points="1547.64,966.623 1539.423,952.03 1539.918,920.67 1548.165,934.378 			"/>
		</g>
		<g>
			
				<linearGradient id="SVGID_8_" gradientUnits="userSpaceOnUse" x1="1644.9492" y1="1231.8008" x2="1631.9299" y2="980.5258" gradientTransform="matrix(1 0 0 -1 4 2016.668)">
				<stop  offset="0" style="stop-color:#E8521D"/>
				<stop  offset="1" style="stop-color:#E42320"/>
			</linearGradient>
			<polygon fill="url(#SVGID_8_)" points="1694.278,802.255 1603.88,927.524 1657.606,927.482 1658.475,888.673 1702.159,888.687 
				1701.197,927.449 1733.621,927.424 1732.588,966.279 1700.233,966.339 1699.165,1009.451 1654.349,1009.588 1655.311,966.422 
				1547.64,966.623 1548.165,934.378 1645.456,802.122 			"/>
		</g>
		<g>
			
				<linearGradient id="SVGID_9_" gradientUnits="userSpaceOnUse" x1="1535.918" y1="1153.4287" x2="1641.4561" y2="1153.4287" gradientTransform="matrix(1 0 0 -1 4 2016.668)">
				<stop  offset="0" style="stop-color:#E73F3E"/>
				<stop  offset="1" style="stop-color:#EB683B"/>
			</linearGradient>
			<polygon fill="url(#SVGID_9_)" points="1548.165,934.378 1539.918,920.67 1634.414,792.101 1645.456,802.122 			"/>
		</g>
		<g>
			
				<linearGradient id="SVGID_10_" gradientUnits="userSpaceOnUse" x1="1630.4141" y1="1219.4902" x2="1690.2783" y2="1219.4902" gradientTransform="matrix(1 0 0 -1 4 2016.668)">
				<stop  offset="0" style="stop-color:#F08864"/>
				<stop  offset="1" style="stop-color:#EC6969"/>
			</linearGradient>
			<polygon fill="url(#SVGID_10_)" points="1645.456,802.122 1634.414,792.101 1681.868,792.243 1694.278,802.255 			"/>
		</g>
	</g>
	<g enable-background="new    ">
		<g>
			
				<linearGradient id="SVGID_11_" gradientUnits="userSpaceOnUse" x1="1185.1855" y1="1095.7178" x2="1219.251" y2="1095.7178" gradientTransform="matrix(1 0 0 -1 4 2016.668)">
				<stop  offset="0" style="stop-color:#E73F3E"/>
				<stop  offset="1" style="stop-color:#EB683B"/>
			</linearGradient>
			<polygon fill="url(#SVGID_11_)" points="1190.074,927.768 1189.186,914.146 1221.421,914.133 1223.251,927.742 			"/>
		</g>
		<g>
			
				<linearGradient id="SVGID_12_" gradientUnits="userSpaceOnUse" x1="1086.4756" y1="1095.665" x2="1141.835" y2="1095.665" gradientTransform="matrix(1 0 0 -1 4 2016.668)">
				<stop  offset="0" style="stop-color:#B53418"/>
				<stop  offset="1" style="stop-color:#B21917"/>
			</linearGradient>
			<polygon fill="url(#SVGID_12_)" points="1090.476,927.844 1092.424,914.183 1145.835,914.163 1145.454,927.801 			"/>
		</g>
		<g>
			
				<linearGradient id="SVGID_13_" gradientUnits="userSpaceOnUse" x1="1141.4248" y1="1134.3926" x2="1186.1426" y2="1134.3926" gradientTransform="matrix(1 0 0 -1 4 2016.668)">
				<stop  offset="0" style="stop-color:#F08864"/>
				<stop  offset="1" style="stop-color:#EC6969"/>
			</linearGradient>
			<polygon fill="url(#SVGID_13_)" points="1145.425,888.543 1145.808,875.995 1189.25,876.023 1190.143,888.557 			"/>
		</g>
		<g>
			
				<linearGradient id="SVGID_14_" gradientUnits="userSpaceOnUse" x1="1029.6211" y1="1153.8398" x2="1126.8818" y2="1153.8398" gradientTransform="matrix(1 0 0 -1 4 2016.668)">
				<stop  offset="0" style="stop-color:#E73F3E"/>
				<stop  offset="1" style="stop-color:#EB683B"/>
			</linearGradient>
			<polygon fill="url(#SVGID_14_)" points="1033.621,934.778 1037.194,920.903 1130.882,790.879 1130.057,800.981 			"/>
		</g>
		<g>
			
				<linearGradient id="SVGID_15_" gradientUnits="userSpaceOnUse" x1="1126.0566" y1="1220.6699" x2="1176.0234" y2="1220.6699" gradientTransform="matrix(1 0 0 -1 4 2016.668)">
				<stop  offset="0" style="stop-color:#F08864"/>
				<stop  offset="1" style="stop-color:#EC6969"/>
			</linearGradient>
			<polygon fill="url(#SVGID_15_)" points="1130.057,800.981 1130.882,790.879 1179.417,791.024 1180.023,801.117 			"/>
		</g>
		<g>
			
				<linearGradient id="SVGID_16_" gradientUnits="userSpaceOnUse" x1="1134.2202" y1="1255.9531" x2="1121.1991" y2="1004.6442" gradientTransform="matrix(1 0 0 -1 4 2016.668)">
				<stop  offset="0" style="stop-color:#E8521D"/>
				<stop  offset="1" style="stop-color:#E42320"/>
			</linearGradient>
			<polygon fill="url(#SVGID_16_)" points="1180.023,801.117 1090.476,927.844 1145.454,927.801 1145.425,888.543 1190.143,888.557 
				1190.074,927.768 1223.251,927.742 1223.11,967.044 1190.006,967.105 1189.93,1010.711 1144.061,1010.852 1144.025,967.19 
				1033.849,967.395 1033.621,934.778 1130.057,800.981 			"/>
		</g>
	</g>
	<g>
		<g enable-background="new    ">
			
				<linearGradient id="SVGID_17_" gradientUnits="userSpaceOnUse" x1="1283.0752" y1="1109.7734" x2="1479.1553" y2="1109.7734" gradientTransform="matrix(1 0 0 -1 4 2016.668)">
				<stop  offset="0" style="stop-color:#B53418"/>
				<stop  offset="1" style="stop-color:#B21917"/>
			</linearGradient>
			<path fill="url(#SVGID_17_)" d="M1483.102,892.459c-0.049-1.476-0.131-2.944-0.244-4.403c-0.114-1.458-0.26-2.908-0.438-4.348
				s-0.387-2.871-0.627-4.29c-0.239-1.42-0.51-2.83-0.811-4.228l-1.679-7.81c0.287,1.337,0.546,2.685,0.775,4.042
				s0.429,2.726,0.599,4.103c0.17,1.377,0.31,2.763,0.419,4.158c0.108,1.395,0.187,2.799,0.233,4.21
				c0.426,12.866-1.801,25.206-6.183,36.5c-4.376,11.276-10.902,21.511-19.086,30.189c-8.173,8.667-18.002,15.784-29,20.839
				c-10.987,5.05-23.145,8.044-35.992,8.471c-12.836,0.426-25.173-1.752-36.491-6.053c-11.32-4.301-21.629-10.73-30.405-18.807
				c-8.782-8.082-16.036-17.818-21.235-28.732c-5.205-10.925-8.354-23.035-8.916-35.851c-0.296-6.725,0.135-13.315,1.224-19.697
				c1.089-6.387,2.838-12.564,5.176-18.456c2.34-5.897,5.271-11.508,8.723-16.757c3.455-5.253,7.432-10.144,11.86-14.596
				l-5.635,5.664c-4.632,4.656-8.79,9.77-12.401,15.264c-3.609,5.489-6.673,11.356-9.118,17.522
				c-2.443,6.161-4.269,12.62-5.406,19.297c-1.136,6.672-1.583,13.563-1.271,20.594c0.594,13.397,3.892,26.056,9.34,37.478
				c5.441,11.408,13.029,21.586,22.217,30.034c9.182,8.443,19.963,15.163,31.802,19.661c11.837,4.499,24.738,6.777,38.162,6.334
				c13.436-0.443,26.149-3.569,37.64-8.844c11.502-5.28,21.782-12.716,30.332-21.774c8.561-9.069,15.387-19.767,19.966-31.554
				C1481.215,918.813,1483.545,905.913,1483.102,892.459z"/>
			
				<linearGradient id="SVGID_18_" gradientUnits="userSpaceOnUse" x1="1312.1338" y1="1231.5488" x2="1509.5273" y2="1231.5488" gradientTransform="matrix(1 0 0 -1 4 2016.668)">
				<stop  offset="0" style="stop-color:#F08864"/>
				<stop  offset="1" style="stop-color:#EC6969"/>
			</linearGradient>
			<path fill="url(#SVGID_18_)" d="M1510.4,818.339c-6.248-11.116-13.972-21.295-22.897-30.28
				c-8.934-8.992-19.069-16.786-30.135-23.125c-11.068-6.34-23.062-11.223-35.706-14.391c-12.643-3.168-25.93-4.622-39.583-4.106
				c-5.455,0.206-10.825,0.72-16.095,1.526c-5.269,0.806-10.436,1.902-15.485,3.272c-5.048,1.37-9.979,3.013-14.776,4.912
				c-4.795,1.898-9.457,4.051-13.969,6.442l-5.62,2.978c4.72-2.501,9.597-4.753,14.613-6.739c5.019-1.986,10.178-3.705,15.459-5.138
				c5.283-1.433,10.69-2.581,16.202-3.423c5.514-0.843,11.134-1.381,16.842-1.596c14.288-0.539,28.192,0.983,41.423,4.298
				c13.231,3.316,25.783,8.425,37.366,15.06c11.578,6.633,22.185,14.788,31.532,24.195c9.34,9.401,17.42,20.05,23.956,31.678
				C1512.485,822.048,1511.443,820.193,1510.4,818.339z"/>
			<g>
				
					<linearGradient id="SVGID_19_" gradientUnits="userSpaceOnUse" x1="1234.4673" y1="1122.0352" x2="1528.1641" y2="1122.0352" gradientTransform="matrix(1 0 0 -1 4 2016.668)">
					<stop  offset="0" style="stop-color:#E8521D"/>
					<stop  offset="1" style="stop-color:#E42320"/>
				</linearGradient>
				<path fill="url(#SVGID_19_)" d="M1532.098,890.75c-0.623-20.206-5.338-39.367-13.387-56.71
					c-8.031-17.36-19.397-32.884-33.255-45.799c-13.857-12.915-30.19-23.186-48.189-30.055
					c-17.983-6.853-37.616-10.288-58.023-9.514c-20.374,0.775-39.637,5.658-56.979,13.824c-17.31,8.167-32.717,19.583-45.446,33.44
					c-12.695,13.824-22.73,30.056-29.348,47.854c-6.601,17.764-9.783,37.11-8.84,57.181c0.942,20.037,5.927,38.963,14.109,56.02
					c8.167,17.023,19.532,32.211,33.271,44.823c13.74,12.595,29.854,22.614,47.534,29.332c17.68,6.702,36.942,10.12,56.996,9.48
					c20.07-0.657,39.063-5.287,56.255-13.134c17.209-7.863,32.599-18.943,45.429-32.464c12.831-13.538,23.103-29.517,30.006-47.129
					C1529.15,930.236,1532.703,910.906,1532.098,890.75z M1483.115,893.579c0.287,13.05-2.037,25.577-6.482,37.044
					c-4.58,11.786-11.416,22.479-19.969,31.554c-8.555,9.059-18.825,16.484-30.326,21.771c-11.5,5.27-24.213,8.402-37.649,8.84
					c-13.42,0.438-26.317-1.835-38.154-6.331s-22.63-11.214-31.807-19.667c-9.193-8.436-16.771-18.623-22.209-30.021
					c-5.456-11.434-8.756-24.079-9.345-37.482c-0.59-13.42,1.582-26.334,6.011-38.188c0.235-0.606,0.472-1.212,0.707-1.819
					c2.576-6.483,5.843-12.645,9.716-18.37c0.017-0.05,0.05-0.101,0.084-0.134c2.762-4.075,5.826-7.931,9.16-11.551
					c8.52-9.211,18.791-16.788,30.342-22.209c11.567-5.422,24.381-8.655,37.952-9.144c13.588-0.505,26.655,1.785,38.626,6.348
					c11.989,4.563,22.866,11.399,32.11,19.986c9.228,8.571,16.821,18.909,22.209,30.46c5.305,11.366,8.47,23.893,8.976,37.127
					c0.017,0.219,0.033,0.438,0.033,0.657c0.017,0.371,0.017,0.724,0.017,1.095C1483.115,893.563,1483.115,893.579,1483.115,893.579
					z"/>
			</g>
		</g>
	</g>
</g>
</svg>
